<!DOCTYPE svg PUBLIC "-//W3C//DTD SVG 1.1//EN" "http://www.w3.org/Graphics/SVG/1.1/DTD/svg11.dtd">
<!-- Uploaded to: SVG Repo, www.svgrepo.com, Transformed by: SVG Repo Mixer Tools -->
<svg fill="#967259" height="800px" width="800px" version="1.1" id="Layer_1" xmlns="http://www.w3.org/2000/svg" xmlns:xlink="http://www.w3.org/1999/xlink" viewBox="0 0 447.036 447.036" xml:space="preserve">
<g id="SVGRepo_bgCarrier" stroke-width="0"/>
<g id="SVGRepo_tracerCarrier" stroke-linecap="round" stroke-linejoin="round"/>
<g id="SVGRepo_iconCarrier"> <g transform="translate(0 -540.36)"> <g> <g> <path d="M420.47,881.796L420.47,881.796c-8.2-23.1-35.4-43.5-75.7-57.4l13.3-7.4c22-9.3,35.6-24.1,39.1-42.8 c3.3-15.9-2.5-30.4-15.2-38c-10.4-6.2-23-6.7-34.7-1.8v-11.6c0-10.5-6.7-25.5-38.7-37.2c-22.6-8.2-52.8-12.8-85.1-12.8 c-32.3,0-62.5,4.5-85.1,12.8c-32,11.7-38.7,26.7-38.7,37.2v49.9c0,17.1,3.4,33.6,10,48.8c-44.4,13.8-74.4,35.5-83.1,60.1 c-5.1,14.4-2.7,29.1,6.9,42.6c12.6,19,37.7,35.1,72.8,46.4c33.9,11,74.4,16.8,117.2,16.8s83.3-5.8,117.2-16.8 c35.1-11.3,60.2-27.4,72.8-46.4C423.17,910.796,425.57,896.096,420.47,881.796z M347.47,772.696v-21.2c8.7-6.1,19-7.1,26.9-2.4v0 c7.2,4.3,10.2,12.4,8.2,22.1v0.1c-2.6,13.8-12.9,24.6-30.5,31.9c-0.3,0.1-0.5,0.2-0.8,0.4l-9.1,5.1 C345.67,797.196,347.47,785.096,347.47,772.696z M143.67,699.696c21-7.7,49.4-11.9,80-11.9c30.6,0,59,4.2,80,11.9 c18.1,6.6,28.8,15.2,28.8,23.1c0,5.8-7.1,12.6-20.1,18.5c-0.2-0.4-0.4-0.7-0.6-1.1c-13.2-18.1-55.6-26.2-91.8-26.2 c-0.1,0-0.2,0-0.2,0c-34.1,1.1-73.6,8.9-84.4,27.4c-13.3-6-20.5-12.8-20.5-18.7C114.77,714.896,125.57,706.296,143.67,699.696z M297.47,746.896c-18.4,5.7-43.5,9.7-73.9,9.7c-30.3-0.1-55.4-4.1-73.7-9.7c7.9-8.3,34.3-16.7,70.1-17.8 C257.67,729.096,287.57,737.796,297.47,746.896z M114.77,747.096c5.7,4.1,13.4,8.1,23.7,11.8c22.7,8.1,52.9,12.6,85.1,12.6 c32.1,0,62.3-4.5,85.1-12.6c10.4-3.7,18-7.7,23.7-11.8v25.7c0,59.8-48.8,108.6-108.8,108.6c-60,0-108.8-48.7-108.8-108.6V747.096 z M172.37,885.439c15.873,7.171,33.238,10.956,51.2,10.956c18,0,35.4-3.8,51.3-11v15.5c-31.2,18.2-71.4,18.2-102.5,0V885.439z M401.27,915.696c-0.1,0.1-0.1,0.2-0.2,0.2c-21.8,33.3-94.9,56.5-177.5,56.5c-82.7,0-155.7-23.3-177.5-56.5 c-0.1-0.1-0.1-0.2-0.2-0.2c-6.8-9.5-8.5-19.3-5.1-29c7.1-20.2,35.3-39.3,75.8-51.5c5.2,8.9,11.6,17.3,19.1,24.8 c6.6,6.6,13.8,12.4,21.6,17.3v27.8c0,2.6,1.3,4.9,3.4,6.3c18.8,12.1,40.8,18.1,62.8,18.1s44-6,62.8-18.1c2.1-1.4,3.4-3.8,3.4-6.3 v-27.8c7.7-4.9,15-10.7,21.6-17.3c7.4-7.4,13.7-15.7,18.9-24.5c40.6,12.2,68.8,31.2,76,51.3 C409.77,896.496,408.07,906.196,401.27,915.696z"/> <path d="M189.87,646.596L189.87,646.596c1.2,0,2.4-0.2,3.5-1c3.6-2,5-6.6,3-10.2c-3.2-5.8-7.3-16.2-6.7-20.3 c0.1-0.2,0.1-0.3,0.1-0.5c0.5-5.7,5.1-10.7,10.5-16.5c6.1-6.5,12.9-13.9,14.5-24.1c0.1-0.3,0.1-0.7,0.1-1.1 c0-10.1-8.1-25.5-9.7-28.5c-2-3.6-6.6-5-10.2-3c-3.6,2-5,6.6-3,10.2c3.1,5.9,7.5,16,7.8,20.9c-1.1,5.4-5.6,10.4-10.5,15.6 c-6.3,6.8-13.5,14.5-14.4,25.3c-1.3,10.6,6.8,26.3,8.4,29.3C184.57,645.196,187.17,646.596,189.87,646.596z"/> <path d="M257.37,646.596L257.37,646.596c1.3,0,2.7-0.3,3.9-1.2c3.5-2.2,4.6-6.8,2.4-10.3c-4-6.6-8.2-16.4-7.7-20 c0.1-0.2,0.1-0.3,0.1-0.5c0.5-5.4,5.3-10.6,10.5-16c6.4-6.7,13.6-14.3,14.5-25c1.4-10.9-7.9-26.6-9.8-29.7 c-2.2-3.5-6.8-4.6-10.3-2.4s-4.6,6.8-2.4,10.3c4,6.6,8.2,16.4,7.7,20c-0.1,0.2-0.1,0.3-0.1,0.5c-0.5,5.4-5.3,10.6-10.5,16 c-6.4,6.7-13.6,14.3-14.5,25c-1.4,10.9,7.9,26.6,9.8,29.7C252.37,645.296,254.87,646.596,257.37,646.596z"/> </g> </g> </g> </g>
</svg>