<!DOCTYPE svg PUBLIC "-//W3C//DTD SVG 1.1//EN" "http://www.w3.org/Graphics/SVG/1.1/DTD/svg11.dtd">
<!-- Uploaded to: SVG Repo, www.svgrepo.com, Transformed by: SVG Repo Mixer Tools -->
<svg fill="#967259" version="1.1" id="Layer_1" xmlns="http://www.w3.org/2000/svg" xmlns:xlink="http://www.w3.org/1999/xlink" viewBox="0 0 214.358 214.358" xml:space="preserve" width="800px" height="800px">
<g id="SVGRepo_bgCarrier" stroke-width="0"/>
<g id="SVGRepo_tracerCarrier" stroke-linecap="round" stroke-linejoin="round"/>
<g id="SVGRepo_iconCarrier"> <g> <g> <g> <path d="M188.669,110.833c2.444-4.416,5.836-8.22,10.4-10.464c1.636-0.804,0.204-3.252-1.432-2.448 c-5.032,2.476-8.796,6.728-11.496,11.648c-3.584-1.7-7.476-3.268-11.604-4.712l-0.596-35.36 c-4.252-14.48-16.08-25.02-26.528-27.82c0.004,0.004,0.016,0.02,0.02,0.024c-0.928-0.444-1.856-0.836-2.732-1.168l-1.988-0.728 c-2.688-0.968-5.224-1.88-7.196-3.368c-1.848-1.392-2.764-6.08-1.816-8.48c0.168-0.256,0.308-0.536,0.428-0.832l-2.5-1.304 c-0.152,0.228-0.284,0.468-0.404,0.732c-1.016,1.368-3.728,2.016-6.148,2.592c-0.676,0.164-1.344,0.324-1.98,0.496 c-4.612,1.26-8.764,4.084-11.696,7.82l-64.252,65.08c-0.048,0.052-0.044,0.124-0.088,0.18 c-16.58,4.868-30.024,11.736-38.244,20.052c-5.912,5.98-8.876,12.392-8.816,19.06c0.248,26.228,47.268,46.708,107.148,46.704 h0.46c42.712-0.072,81.156-11.084,97.932-28.048c5.912-5.98,8.88-12.392,8.816-19.06 C214.261,129.633,204.633,118.981,188.669,110.833z M174.541,109.141c3.496,1.256,6.796,2.604,9.86,4.04 c-0.368,0.876-2.424,7.568-2.668,8.828c-0.272-0.072-0.524-0.188-0.804-0.244c-2.2-0.436-4.372-0.252-6.388,0.34V109.141z M178.273,124.337c0.692,0,1.396,0.072,2.1,0.212c2.732,0.544,5.064,2.1,6.56,4.38c1.408,2.148,1.892,4.688,1.36,7.148 c-1.14,5.284-6.572,8.68-12.088,7.576c-2.736-0.548-5.068-2.104-6.564-4.388c-1.408-2.144-1.888-4.684-1.356-7.14 C169.281,127.513,173.537,124.337,178.273,124.337z M50.553,157.329v-10.044h0.004l19.416-4.66l-0.528-2.204l-18.892,4.532v-4.22 l120.016-28.792v12.08c-1.028,0.728-1.948,1.588-2.72,2.584L50.553,157.329z M162.085,134.665c0.024,2.54-1.084,4.96-3.296,7.2 c-7.708,7.788-28.484,12.856-52.936,12.9h-0.296c-8.436,0-16.116-0.632-22.94-1.736l79.124-20.724 C161.953,133.081,162.077,133.869,162.085,134.665z M141.761,42.473l1.94,0.708c2.516,0.952,6.016,2.508,7.36,4.992 c0.812,1.504,0.888,3.472,0.228,5.848c-0.42,1.512-0.9,2.672-1.872,3.416c-1.82,1.388-4.544,2.456-7.732,3.22 c1.808-4.148,3.156-8.952,2.004-13.292c-0.46-1.728-1.232-2.84-2.576-4.024c-1.544-1.36-3.524-1.972-5.12-3.276 C137.817,41.037,139.809,41.773,141.761,42.473z M132.037,53.757c-0.22-2.26-1.16-4.38-1.612-6.588 c-0.864-4.22-0.552-8.436,0.148-12.612c0.6,2.628,1.588,5.088,3.688,7.024c2.892,2.668,6.512,4.012,7.52,8.496 c0.76,3.372-1.268,7.98-2.82,11.136c-2.86,0.5-5.96,0.788-9.08,0.868C131.569,59.689,132.353,56.961,132.037,53.757z M127.765,44.981c0.74,6.312,3.944,11.784-0.904,17.116c-3.88-0.064-7.632-0.456-10.792-1.148 c-4.248-10.276,6.18-20.336,12.52-28.216C127.817,36.773,127.281,40.873,127.765,44.981z M111.693,42.225 c2.416-4.748,6.964-8.424,12.164-9.848c0.608-0.164,1.248-0.316,1.896-0.472c0.264-0.064,0.532-0.14,0.8-0.204 c-6.664,8.328-16.372,17.66-13.144,28.536c-0.296-0.096-0.616-0.18-0.896-0.284c-0.764-0.276-1.612-0.632-2.092-1.124 c-0.52-0.54-0.7-1.348-0.82-2.476C108.997,50.789,109.681,46.169,111.693,42.225z M107.013,47.569 c-0.488,2.78-0.588,5.776-0.232,9.08c0.104,0.98,0.3,2.796,1.6,4.144c0.88,0.912,2.088,1.428,3.156,1.82 c3.676,1.344,9.324,2.136,15.308,2.248c0.016,0,0.028,0,0.044,0c0.456,0.008,0.892,0.044,1.348,0.044 c8.804,0,18.1-1.548,22.904-5.224c1.7-1.296,2.412-3.208,2.88-4.908c0.58-2.088,0.66-3.96,0.32-5.636 c8.016,5.104,13.436,12.312,15.992,21.724L54.997,100.249L107.013,47.569z M50.553,122.897h0.004l30.744-7.376l-0.532-2.204 l-30.212,7.248v-15.088l120.016-30.576v16.872l-57.444,13.784l0.528,2.204l56.916-13.656v3.048 c-2.152,1.108-3.724,2.936-5.216,4.756c-0.96,1.172-1.864,2.276-2.912,3.184c-0.32,0.272-0.692,0.564-1.056,0.632 c-0.428,0.096-0.936-0.124-1.292-0.32c-0.728-0.396-1.392-0.976-2.092-1.592c-1.176-1.032-2.392-2.096-4.084-2.444 c-0.604-0.124-1.124-0.104-1.584,0.064c-0.624,0.228-1.032,0.676-1.324,1.048c-0.836,1.08-1.308,2.296-1.764,3.472 c-0.252,0.644-0.5,1.292-0.816,1.908c-0.672,1.308-2.004,2.584-3.308,2.32c-0.944-0.196-1.628-1.096-2.42-2.136 c-0.34-0.452-0.688-0.904-1.06-1.304c-0.908-0.988-1.904-1.584-2.96-1.772c-1.456-0.284-2.928,0.344-3.608,1.476 c-0.376,0.616-0.476,1.288-0.572,1.94c-0.168,1.088-0.424,2.176-0.772,3.224c-0.064,0.192-0.256,0.772-0.488,0.896 c-0.148,0.084-0.516-0.056-0.704-0.296c-0.176-0.276-0.588-1.536-0.836-2.284c-0.688-2.088-0.964-2.876-2.008-2.72 c-2.68,0.388-9.24,2.072-9.752,2.204l-69.392,16.652V122.897z M50.549,128.377h0.008l69.9-16.772v0.004 c0.004,0,0.096-0.024,0.16-0.04l0.384-0.092v-0.004c1.46-0.372,5.732-1.44,8.208-1.896c0.104,0.3,0.22,0.668,0.344,1.048 c0.552,1.676,0.844,2.512,1.18,2.944c0.608,0.78,1.52,1.22,2.408,1.22c0.404,0,0.796-0.088,1.156-0.276 c0.916-0.476,1.32-1.372,1.592-2.192c0.388-1.168,0.676-2.38,0.88-3.72c0.06-0.392,0.112-0.756,0.248-0.984 c0.196-0.332,0.752-0.516,1.264-0.42c0.696,0.124,1.308,0.652,1.692,1.076c0.324,0.356,0.624,0.752,0.924,1.144 c0.932,1.228,1.992,2.616,3.764,2.984c2.492,0.524,4.692-1.388,5.784-3.5c0.352-0.684,0.636-1.404,0.916-2.124 c0.416-1.076,0.812-2.084,1.44-2.904c0.2-0.256,0.284-0.296,0.308-0.308c0,0,0.08-0.028,0.348,0.028 c1.104,0.232,2.048,1.056,3.048,1.932c0.764,0.672,1.556,1.364,2.5,1.88c0.992,0.544,1.944,0.732,2.82,0.556 c0.88-0.172,1.58-0.7,2.092-1.14c1.196-1.04,2.208-2.268,3.184-3.464c1.112-1.36,2.196-2.644,3.464-3.572v9.832L50.549,138.409 V128.377z M202.733,157.693c-16.072,16.252-53.408,26.8-95.12,26.872h-0.44c-56.716,0-102.968-19.148-103.192-42.772 c-0.052-5.572,2.528-11.032,7.668-16.232c7.536-7.62,19.792-13.956,34.936-18.576v55.484l30.912-8.096 c8.02,1.688,17.424,2.66,28.052,2.66h0.304c25.412-0.044,46.312-5.248,54.544-13.572c2.656-2.684,3.984-5.648,3.956-8.816 c-0.008-0.988-0.2-1.948-0.46-2.9l1.696-0.444c-0.02,0.08-0.056,0.148-0.072,0.224c-0.692,3.212-0.072,6.512,1.756,9.296 c1.916,2.92,4.892,4.916,8.38,5.612c0.888,0.176,1.776,0.26,2.652,0.26c6.044,0,11.484-4.088,12.764-10.016 c0.692-3.212,0.068-6.516-1.76-9.304c-1.232-1.876-2.936-3.316-4.896-4.332c0.224-1.192,2.168-7.708,2.54-8.608 c14.548,7.368,23.36,16.772,23.456,27.032C210.457,147.037,207.877,152.493,202.733,157.693z"/> <rect x="92.182" y="103.863" transform="matrix(-0.2344 -0.9721 0.9721 -0.2344 6.8288 228.3108)" width="2.268" height="15.207"/> <rect x="114.454" y="86.171" transform="matrix(-0.2328 -0.9725 0.9725 -0.2328 15.8608 272.9326)" width="2.264" height="88.078"/> <path d="M182.793,132.201c0.428,1.136,0.416,2.356-0.032,3.34l2.58,1.18c0.764-1.668,0.804-3.684,0.104-5.524 c-0.72-1.904-2.148-3.444-3.92-4.236l-1.152,2.592C181.457,130.037,182.337,131.001,182.793,132.201z"/> <circle cx="165.705" cy="154.357" r="1.368"/> <circle cx="76.993" cy="162.477" r="1.368"/> <circle cx="69.985" cy="169.837" r="1.368"/> <circle cx="85.665" cy="169.157" r="1.368"/> </g> </g> </g> </g>
</svg>